<svg width="16" height="18" viewBox="0 0 32 36" fill="none" xmlns="http://www.w3.org/2000/svg">
	<path
		d="M0.0159526 5.91892C0.790851 5.35927 3.12894 5.22279 7.88998 3.54404C12.651 1.86528 15.9471 0 15.9471 0C15.9471 0 19.2886 1.98794 23.4549 3.54404C26.2017 4.56994 30.7796 5.50258 31.7867 5.78237C31.7867 9.23314 31.9035 14.5951 29.9556 20.0518C26.3265 30.2176 16.8627 35.3471 15.9963 36C14.8484 35.1606 7.07458 30.8782 3.45274 23.4093C-0.184158 15.9094 -0.033175 11.2349 0.0159526 5.91892Z"
		fill="#005CBF" />
	<path
		d="M20.1265 2.15434C21.1275 2.61464 22.256 3.09654 23.4524 3.5429C26.2015 4.56855 30.7834 5.50095 31.7914 5.78067C31.7914 9.23058 31.9083 14.5912 29.9587 20.0465C26.2322 30.4735 15.9873 35.9907 15.9873 35.9907C15.9873 35.9907 11.9101 33.7847 8.38704 30.1641C-0.467824 21.0642 2.00364 11.1889 10.4641 5.78067C15.8003 2.10572 20.1004 2.15431 20.1265 2.15434Z"
		fill="#006EE5" />
	<path
		d="M9.69915 24.4841C9.82553 24.9806 10.1402 26.4284 11.24 27.0188C12.3397 27.6092 14.0685 25.9963 15.3458 24.4799C17.4005 22.0405 21.1537 17.1005 19.4792 15.6391C17.8046 14.1777 14.2013 15.1934 11.7736 14.9036C9.18529 14.5946 6.93473 11.9864 7.85051 9.453C9.37794 5.2275 15.799 2.29427 20.1203 2.15273C20.1775 2.15719 20.2069 2.21402 20.1775 2.26378C20.08 2.42908 19.2528 2.94609 18.7096 3.40163C17.8629 4.11167 16.9161 4.87954 15.6344 6.33191C14.2899 7.85553 14.345 8.78568 14.9337 9.59059C15.5819 10.4769 17.8102 10.5385 19.9501 10.3095C21.6255 10.1303 23.7161 9.79132 24.8323 11.0471C29.0988 15.8474 18.4716 28.0648 15.0323 30.7525C13.957 31.5928 12.5801 32.2455 11.0776 32.0154C9.0634 31.7068 8.16297 29.3876 7.924 27.0736C7.80146 25.8869 7.57777 23.4113 8.33987 21.21C8.78807 19.9154 9.97054 18.3859 10.0206 18.8706C9.66303 20.7776 9.20779 22.5537 9.69915 24.4841Z"
		fill="white" />
</svg>